<?xml version="1.0" encoding="UTF-8" standalone="no"?>
<svg
   viewBox="0 0 1741.843 487.79"
   width="1741.843"
   height="487.79"
   version="1.1"
   id="svg9"
   sodipodi:docname="cover-design-masha.svg"
   inkscape:version="1.4 (e7c3feb1, 2024-10-09)"
   xml:space="preserve"
   xmlns:inkscape="http://www.inkscape.org/namespaces/inkscape"
   xmlns:sodipodi="http://sodipodi.sourceforge.net/DTD/sodipodi-0.dtd"
   xmlns="http://www.w3.org/2000/svg"
   xmlns:svg="http://www.w3.org/2000/svg"><defs
   id="defs1" /><sodipodi:namedview
   id="namedview1"
   pagecolor="#ffffff"
   bordercolor="#eeeeee"
   borderopacity="0"
   inkscape:showpageshadow="0"
   inkscape:pageopacity="0"
   inkscape:pagecheckerboard="0"
   inkscape:deskcolor="#505050"
   inkscape:zoom="0.43096984"
   inkscape:cx="656.65848"
   inkscape:cy="323.68854"
   inkscape:window-width="1472"
   inkscape:window-height="806"
   inkscape:window-x="0"
   inkscape:window-y="38"
   inkscape:window-maximized="1"
   inkscape:current-layer="svg9" />

    <path
   fill="#fff"
   d="M0 0h1741.843v487.79H0z"
   id="path1"
   style="fill:#ffffff;fill-opacity:0" /><text
   y="56.165"
   font-family="Excalifont, Xiaolai, Segoe UI Emoji"
   font-size="63.751"
   fill="#1e1e1e"
   style="white-space:pre"
   dominant-baseline="alphabetic"
   transform="translate(1213.737 33.134)"
   id="text1">Logbook</text><text
   y="14.096"
   font-family="Excalifont, Xiaolai, Segoe UI Emoji"
   font-size="16"
   fill="#1e1e1e"
   style="white-space:pre"
   dominant-baseline="alphabetic"
   transform="translate(1203.663 131.01)"
   id="text2">Where the good times are recorded</text><path
   d="M1478.113 120.654c-45.6.11-225.88-2.94-271.64-3.01m268.29 1.93c-46.09.49-225.79-.18-270.03.48"
   stroke="#1e1e1e"
   stroke-width=".5"
   fill="none"
   stroke-linecap="round"
   id="path2" /><text
   y="94.846344"
   font-family="Excalifont, Xiaolai, 'Segoe UI Emoji'"
   font-size="28px"
   fill="#1e1e1e"
   style="white-space:pre"
   dominant-baseline="alphabetic"
   id="text3"
   x="46.178436">Loveliest Mascha,</text><text
   y="157.29601"
   font-family="Excalifont, Xiaolai, 'Segoe UI Emoji'"
   font-size="28px"
   fill="#1e1e1e"
   style="white-space:pre"
   dominant-baseline="alphabetic"
   id="text4"
   x="40.122089">I wish you always follow your dreams,</text><text
   y="192.29601"
   font-family="Excalifont, Xiaolai, 'Segoe UI Emoji'"
   font-size="28px"
   fill="#1e1e1e"
   style="white-space:pre"
   dominant-baseline="alphabetic"
   id="text5"
   x="74.927307">and may your dreams take you </text><text
   y="229.61635"
   font-family="Excalifont, Xiaolai, 'Segoe UI Emoji'"
   font-size="28px"
   fill="#1e1e1e"
   style="white-space:pre"
   dominant-baseline="alphabetic"
   id="text6"
   x="93.490089">where you are the happiest</text><path
   d="m 249.92992,449.56762 c 49.75732,-1.69948 245.16145,-16.40967 295.08457,-18.44346 m -298.2013,5.20986 c 50.86253,0.4179 253.39538,6.12923 303.63901,4.79196 M 37.372649,297.36161 c 207.296451,57.22398 361.048171,45.34257 498.899471,0 m -498.899471,0 c 179.578061,81.5431 342.030301,60.27497 498.899471,0 m 0,0 c 18.79992,0.25076 27.38754,-20.92303 26.95651,-67.95108 m -26.95651,67.95108 c 20.76723,6.43574 23.62977,-26.96869 26.95651,-67.95108 m 0,0 c 2.97305,-25.68715 0.16578,-63.68848 0,-135.902201 m 0,135.902201 c -0.7184,-36.85907 2.7078,-86.17167 0,-135.902201 m 0,0 C 562.78654,37.564997 550.08747,18.592194 536.27212,25.557233 m 26.95651,67.951096 c 4.35459,-49.145433 -7.47135,-67.839636 -26.95651,-67.951096 m 0,0 c -193.93416,-13.261467 -386.71892,-12.732105 -498.899471,0 m 498.899471,0 c -121.15498,1.253727 -241.88997,2.84176 -498.899471,0 m 0,0 C 17.146994,23.690598 11.322448,42.440532 10.416162,93.508329 M 37.372649,25.557233 C 22.231039,23.857764 9.81934,41.771895 10.416162,93.508329 m 0,0 c -4.3877509,33.348701 -1.6688926,66.753131 0,135.902201 m 0,-135.902201 c 1.889938,36.441191 -1.2268017,64.134261 0,135.902201 m 0,0 c -1.7794153,38.44712 8.886025,67.50532 26.956487,67.95108 M 10.416162,229.41053 c 1.35943,36.97052 5.249829,64.27355 26.956487,67.95108"
   stroke="#1e1e1e"
   stroke-width="0.877381"
   fill="none"
   stroke-linecap="round"
   id="path6"
   sodipodi:nodetypes="cccccccccccccccccccccccccccccccccccc" /><text
   xml:space="preserve"
   style="font-size:34.7383px;font-family:'Hoefler Text';-inkscape-font-specification:'Hoefler Text';text-align:start;writing-mode:lr-tb;direction:ltr;text-anchor:start;fill:#000000;fill-opacity:1;stroke-width:2.0264"
   x="94.944778"
   y="317.85388"
   id="text20"
   transform="scale(1.0666049,0.93755429)"><tspan
     sodipodi:role="line"
     id="tspan20"
     x="94.944778"
     y="317.85388"
     style="font-style:normal;font-variant:normal;font-weight:normal;font-stretch:normal;font-size:34.7383px;font-family:Excalifont;-inkscape-font-specification:'Excalifont, Normal';font-variant-ligatures:normal;font-variant-caps:normal;font-variant-numeric:normal;font-variant-east-asian:normal;fill:#000000;fill-opacity:1;stroke-width:2.0264">Happy birthday, Love</tspan></text><path
   d="m 434.48691,342.30749 c 1.57211,0.0935 1.57211,0.0935 3.20137,0.37421 1.08932,1.33697 0.99346,1.84063 0.93076,3.41904 -0.0348,2.00517 0.0428,3.96871 0.26797,5.96689 0.0293,0.26134 0.0586,0.52268 0.0888,0.79193 0.0619,0.54418 0.12454,1.08831 0.1877,1.63239 0.57219,4.97813 0.97291,9.94775 1.15446,14.94571 0.0157,0.39835 0.0157,0.39835 0.0317,0.80475 0.17804,4.67051 0.17804,4.67051 -0.3747,6.11812 0.51139,-0.034 1.02278,-0.068 1.54966,-0.10306 18.08644,-1.1843 35.78993,-1.69589 53.78828,0.47726 0,0.49396 0,0.98792 0,1.49684 -2.84875,-0.14887 -5.69312,-0.30565 -8.53122,-0.55748 -5.76584,-0.50717 -11.45473,-0.68477 -17.25123,-0.6587 -0.43128,7.5e-4 -0.86256,10e-4 -1.30691,0.002 -6.80427,0.0122 -13.55006,0.23427 -20.33269,0.67624 -2.64355,0.16879 -5.2655,0.20314 -7.91589,0.16371 -0.0772,0.46539 -0.0772,0.46539 -0.15598,0.94018 -0.43224,2.52993 -1.1535,4.65208 -2.58804,6.91836 -0.65277,1.06823 -0.60036,2.04633 -0.68601,3.23779 -0.0186,0.24546 -0.0371,0.49092 -0.0563,0.74381 -0.0593,0.78544 -0.11615,1.57098 -0.17239,2.35657 -0.0741,1.0326 -0.15068,2.06505 -0.22867,3.09746 -0.033,0.45968 -0.066,0.91936 -0.10004,1.39296 -0.12863,1.14611 -0.12863,1.14611 -0.58597,2.26874 0.35903,-0.0854 0.71806,-0.17077 1.08797,-0.25874 5.07392,-1.13597 5.07392,-1.13597 7.60146,-0.48968 1.24817,0.73324 1.71763,1.18103 2.14377,2.38558 -0.50601,1.58086 -1.97704,2.25887 -3.51579,3.22756 -5.3954,3.5165 -8.6738,8.27171 -9.56837,13.91736 -0.0784,3.12645 0.69905,6.21077 1.33628,9.2836 0.92384,4.61167 1.4456,8.73102 -0.91467,13.09733 -0.60369,-0.12349 -1.20738,-0.24698 -1.82936,-0.37421 -1.25504,-7.23769 -2.31623,-14.12347 -1.25768,-21.42348 0.0597,-0.42609 0.11946,-0.85218 0.181,-1.29119 0.75108,-5.28281 1.59678,-10.55642 2.4487,-15.82888 -0.5097,0.0567 -1.01938,0.11336 -1.54452,0.17176 -1.90127,0.21096 -3.80291,0.41963 -5.70467,0.62764 -0.82114,0.0901 -1.64217,0.18087 -2.46311,0.27225 -1.18384,0.13166 -2.36802,0.26109 -3.5523,0.39011 -0.36361,0.0409 -0.72724,0.0819 -1.10187,0.12402 -2.09232,0.22542 -4.10333,0.32545 -6.21375,0.28527 0.099,0.34345 0.19809,0.6869 0.30012,1.04077 1.40724,5.07488 1.3759,8.96179 -1.81506,13.64694 -1.11192,1.88988 -0.76487,3.79048 -0.49005,5.81815 0.23125,1.82034 0.074,3.19293 -0.73904,4.94036 -1.20052,1.09924 -1.20052,1.09924 -2.28669,1.87105 -0.45277,-0.12349 -0.90553,-0.24698 -1.37202,-0.37421 0.14129,-1.26309 0.28483,-2.52599 0.42876,-3.78887 0.0597,-0.53399 0.0597,-0.53399 0.12058,-1.07877 0.0597,-0.52097 0.0597,-0.52097 0.12059,-1.05247 0.038,-0.34101 0.0761,-0.68202 0.11523,-1.03337 0.12952,-0.90491 0.12952,-0.90491 0.48503,-2.00854 0.17275,-1.93673 -0.71931,-3.68671 -1.44169,-5.5152 -1.53225,-3.8959 -2.46425,-7.25842 -1.65785,-11.34322 -10.26886,1.19023 -20.37241,2.547 -30.42416,4.6599 -1.13218,0.20482 -1.13218,0.20482 -2.5042,0.20482 0.0521,0.6084 0.11048,1.21643 0.1715,1.82427 0.0319,0.33863 0.0637,0.67726 0.0965,1.02616 0.0959,0.95881 0.0959,0.95881 1.10404,1.64008 0.90553,-0.61744 1.81106,-1.23489 2.74403,-1.87104 0.30184,0.12349 0.60368,0.24698 0.91467,0.37421 -0.34057,2.89813 -0.34057,2.89813 -1.82935,4.1163 -0.45277,0.12349 -0.90553,0.24698 -1.37201,0.37421 -5.26548,5.66803 -7.84037,12.47888 -8.58827,19.48373 -0.44517,3.90342 -1.39882,7.67586 -2.38785,11.50547 -1.5737,6.12446 -2.64244,12.16013 -3.20137,18.40641 -0.75461,0 -1.50922,0 -2.28669,0 -0.90764,-1.48531 -0.56934,-3.05552 -0.015,-4.6017 0.46761,-1.37189 0.66709,-2.60921 0.79744,-4.02704 0.0498,-0.50788 0.0997,-1.01575 0.14984,-1.5236 0.0249,-0.26298 0.0498,-0.52596 0.0754,-0.7969 0.68702,-7.14061 1.84974,-14.09939 4.124,-21.02747 0.73738,-2.3347 1.11198,-4.63856 1.41389,-7.0346 0.72908,-5.71247 2.6139,-11.21254 4.43046,-16.74586 -11.24555,3.03 -22.25864,6.36465 -33.18332,10.09664 -1.95399,0.66684 -3.90986,1.32997 -5.86551,1.99353 -0.80515,0.27328 -1.61029,0.54656 -2.41543,0.81986 -0.3986,0.1353 -0.79721,0.27061 -1.20789,0.41 -1.19546,0.40596 -2.39069,0.81233 -3.5859,1.21877 -8.48832,2.88479 -16.99468,5.73951 -25.60123,8.38151 -0.5203,0.16181 -0.5203,0.16181 -1.05111,0.32689 -1.57319,0.4737 -2.67941,0.70219 -4.37978,0.70219 0,-0.49396 0,-0.98791 0,-1.49684 0.28545,-0.084 0.57089,-0.16792 0.86499,-0.25443 12.13091,-3.58483 24.04422,-7.59184 35.92863,-11.68801 20.03095,-6.90345 20.03095,-6.90345 29.53651,-9.33632 0.70351,-0.18247 1.40701,-0.36497 2.11049,-0.54752 1.35538,-0.35112 2.71463,-0.68662 4.07898,-1.01354 0.61554,-0.15696 1.23092,-0.31434 1.8461,-0.47224 0.54308,-0.13253 1.08615,-0.26507 1.64568,-0.40162 1.43153,-0.53837 1.43153,-0.53837 1.90104,-1.89663 1.1281,-5.14146 1.5901,-9.99123 -2.1086,-14.50023 -2.94182,-3.28245 -2.94182,-3.28245 -7.20308,-5.16877 -1.13191,1.1114 -1.13191,1.1114 -2.28669,2.24526 -0.60369,-0.24698 -1.20738,-0.49396 -1.82936,-0.74842 0.6984,-1.28577 1.64609,-2.28983 2.74403,-3.36788 -0.33604,-0.10516 -0.67207,-0.21032 -1.01829,-0.31867 -1.14509,-0.38797 -2.18535,-0.82994 -3.26925,-1.3185 -3.25406,-1.35324 -6.79558,-1.98669 -10.33768,-2.64815 -0.87604,-0.17742 -0.87604,-0.17742 -2.29629,-0.5794 -0.45734,-1.12263 -0.45734,-1.12263 0.14292,-2.17509 2.4655,-2.79381 7.60881,-4.43541 11.60674,-5.15707 1.98667,-0.1996 3.94365,-0.22342 5.94361,-0.22219 0.60641,-3.6e-4 0.60641,-3.6e-4 1.22508,-7.5e-4 2.91501,0.0193 5.68887,0.22383 8.52194,0.81931 0.12871,-0.26654 0.25741,-0.53308 0.39001,-0.80771 0.9179,-1.86029 1.91306,-3.69309 2.89711,-5.53046 0.33886,-0.63597 0.33886,-0.63597 0.68456,-1.28479 1.14687,-2.13528 2.33779,-4.20626 3.71732,-6.24617 2.28143,-3.58468 3.13855,-7.6576 4.2018,-11.57709 0.75461,-0.12349 1.50921,-0.24698 2.28669,-0.37421 1.19806,1.74627 1.35671,3.27509 0.91468,5.23893 -0.70835,1.21821 -1.51471,2.32586 -2.41175,3.45705 -1.21067,1.58453 -1.8061,3.07042 -2.16164,4.91003 -0.075,0.384 -0.15004,0.76801 -0.22732,1.16365 -0.0759,0.40517 -0.15181,0.81034 -0.23002,1.22778 -0.11916,0.62187 -0.11916,0.62187 -0.24073,1.25629 -0.63098,3.34599 -1.15845,6.69658 -1.58862,10.06356 19.64925,3.47673 38.14858,2.88741 58.08196,1.49683 0.22173,-6.43065 -0.25901,-12.77303 -0.88397,-19.1794 -0.31326,-3.27565 -0.55791,-6.53967 -0.58808,-9.82619 -0.005,-0.29286 -0.0101,-0.58572 -0.0154,-0.88745 0.008,-3.32356 0.008,-3.32356 1.48742,-4.5342 z m 0.91468,1.49684 c -0.53754,1.31948 -0.53402,2.50942 -0.52701,3.88242 7.5e-4,0.27945 0.002,0.55889 0.003,0.84681 0.0362,3.20244 0.32728,6.38778 0.62742,9.57964 0.16528,1.76158 0.32104,3.52372 0.47573,5.28595 0.0454,0.51623 0.0454,0.51623 0.0917,1.0429 0.35342,4.09388 0.55798,8.19041 0.70151,12.29268 0.45276,0 0.90553,0 1.37201,0 0.37575,-1.58665 0.49571,-3.04595 0.43412,-4.66007 -0.0261,-0.69933 -0.0261,-0.69933 -0.0527,-1.41279 -0.0221,-0.50163 -0.0444,-1.00325 -0.067,-1.50487 -0.016,-0.38435 -0.016,-0.38435 -0.0323,-0.77647 -0.16399,-3.9176 -0.45827,-7.81836 -0.86142,-11.72482 -0.32185,-3.15531 -0.51184,-6.30803 -0.63643,-9.47254 -0.0144,-0.33549 -0.0289,-0.67099 -0.0438,-1.01665 -0.0164,-0.4421 -0.0164,-0.4421 -0.0331,-0.89313 -0.0288,-0.75168 -0.0288,-0.75168 -0.53672,-1.46906 -0.30185,0 -0.60369,0 -0.91468,0 z m -54.42325,8.2326 c 0.45734,0.74842 0.45734,0.74842 0.45734,0.74842 z m -5.48806,11.97469 c -0.83008,1.47302 -1.65858,2.94663 -2.48678,4.42035 -0.23611,0.41894 -0.47222,0.83789 -0.71548,1.26953 -0.2255,0.40158 -0.451,0.80316 -0.68333,1.21691 -0.20837,0.37038 -0.41673,0.74076 -0.63141,1.12236 -0.54407,0.96776 -0.54407,0.96776 -0.97106,2.0745 2.26382,0.37047 2.26382,0.37047 4.57338,0.74842 0.24366,-1.52747 0.47982,-3.05566 0.71459,-4.58406 0.0693,-0.43366 0.13854,-0.86732 0.20991,-1.31412 0.0634,-0.41726 0.12675,-0.83452 0.19205,-1.26442 0.0599,-0.38409 0.11975,-0.76819 0.18143,-1.16392 0.0688,-0.95648 -0.022,-1.62247 -0.3833,-2.52555 z m -32.01368,14.21995 c -0.30184,0.37047 -0.60369,0.74094 -0.91468,1.12263 0.55299,0.10468 1.10597,0.20935 1.67572,0.3172 4.86209,0.96003 9.04389,2.1812 13.41644,4.17331 0.60798,0.25241 1.21694,0.5033 1.82936,0.74842 4.01261,-4.11862 4.01261,-4.11862 7.31741,-8.60681 -0.22638,-0.5557 -0.22638,-0.5557 -0.45734,-1.12263 -7.99962,-1.08505 -16.18341,-0.79185 -22.86691,3.36788 z m 25.1536,-2.61946 c -0.21636,0.32609 -0.43272,0.65217 -0.65563,0.98814 -2.10264,3.11634 -4.41849,5.94843 -7.11912,8.7413 1.05796,0.87166 2.11472,1.74008 3.21387,2.57707 3.62594,2.79698 5.67571,5.81865 6.84758,9.77183 0.45276,-0.18523 0.45276,-0.18523 0.91467,-0.37421 0.29593,-1.08792 0.29593,-1.08792 0.47342,-2.41628 0.0382,-0.2463 0.0764,-0.49261 0.11583,-0.74638 0.0807,-0.52485 0.15937,-1.04992 0.23622,-1.57516 0.11528,-0.788 0.23605,-1.57533 0.35807,-2.36265 0.59483,-3.88731 1.18385,-7.78037 1.13173,-11.70354 -0.004,-0.41099 -0.008,-0.82197 -0.0125,-1.24542 -0.005,-0.29907 -0.0106,-0.59815 -0.0161,-0.90628 -1.90227,-0.48832 -3.4988,-0.7934 -5.48805,-0.74842 z m 7.31741,1.12262 c -0.0408,0.47168 -0.0408,0.47168 -0.0824,0.95289 -0.68145,7.64095 -1.73127,15.19488 -3.12723,22.77121 -0.0895,0.48854 -0.0895,0.48854 -0.18081,0.98696 -0.11232,0.61001 -0.22631,1.21983 -0.3423,1.82938 -0.25832,1.39355 -0.44923,2.73434 -0.3833,4.14472 0.43118,-0.0809 0.86235,-0.16178 1.30658,-0.24512 2.05913,-0.38437 4.12058,-0.75999 6.18233,-1.13478 0.5643,-0.10348 0.5643,-0.10348 1.13999,-0.20904 4.25429,-0.77557 8.48545,-1.47112 12.81419,-1.90173 0.35662,-0.0366 0.71325,-0.0732 1.08068,-0.11094 1.70348,-0.17251 3.4052,-0.32634 5.1146,-0.45357 3.1475,-0.18232 3.1475,-0.18232 5.62238,-1.57925 0.46396,-0.86194 0.74623,-1.69007 1.03962,-2.59817 0.34901,-0.37819 0.69801,-0.75637 1.0576,-1.14602 1.08151,-1.54043 0.74721,-2.38131 0.31442,-4.09291 -0.7499,0.0926 -0.7499,0.0926 -1.51494,0.1871 -4.04597,0.39773 -7.49048,0.35427 -11.29054,-0.93552 -0.33014,0.31644 -0.66028,0.63288 -1.00042,0.95891 -1.28627,0.91213 -1.28627,0.91213 -2.54395,0.86536 -1.02901,-0.32743 -1.02901,-0.32743 -1.48635,-0.70164 -0.0713,-0.5015 -0.11453,-1.00572 -0.1447,-1.51 -0.0192,-0.30269 -0.0383,-0.60538 -0.0581,-0.91725 -0.018,-0.31812 -0.036,-0.63625 -0.0545,-0.96402 -0.0198,-0.31958 -0.0395,-0.63916 -0.0598,-0.96842 -0.0487,-0.79195 -0.0947,-1.58401 -0.14023,-2.37608 -2.70783,0.21629 -3.79397,0.56019 -5.59526,2.15024 -1.2511,1.3068 -2.27547,2.71442 -3.28712,4.15138 -0.23817,0.26676 -0.47634,0.53352 -0.72173,0.80836 -0.45276,0 -0.90553,0 -1.37202,0 1.1273,-1.98669 2.35851,-3.65765 4.03745,-5.36465 0.62372,-0.59775 0.62372,-0.59775 0.53594,-1.37112 2.99613,-1.22577 4.04986,-1.49684 7.77475,-1.49684 0.22638,3.51944 0.22638,3.51944 0.45734,7.10998 1.83228,-0.5459 1.83228,-0.5459 2.17593,-1.42814 0.12251,-0.90378 0.1049,-1.75657 0.0536,-2.66478 -0.0226,-1.56994 0.1553,-2.5227 1.42918,-3.76548 1.47016,-0.60146 2.98363,-0.60596 4.57339,-0.3742 1.34343,0.91213 1.34343,0.91213 2.28669,1.87104 0.15092,0.12349 0.30184,0.24698 0.45734,0.37421 0.0649,1.12387 0.0194,2.24233 0,3.36788 -1.3583,0.49396 -2.71659,0.98792 -4.11605,1.49684 1.95177,1.06466 3.65483,0.89564 5.9454,0.74842 1.11739,-0.18738 2.12083,-0.44089 3.20137,-0.74842 -0.0239,-0.44716 -0.0239,-0.44716 -0.0482,-0.90336 -0.12649,-4.0512 -0.12649,-4.0512 1.42025,-5.83241 1.41267,-0.77059 1.69643,-0.83786 3.28712,-0.79519 0.57539,0.0155 1.15078,0.0309 1.7436,0.0468 0.9167,1.54701 1.1015,2.77848 0.91468,4.49051 -0.69816,1.49954 -1.64149,2.03917 -3.28712,2.80657 -0.96626,0.43302 -0.96626,0.43302 -1.7436,0.93552 -0.30713,1.01657 -0.30713,1.01657 0,1.87104 1.79168,-0.54536 3.40566,-1.22793 5.0593,-2.01137 0.46751,-0.219 0.93501,-0.438 1.41668,-0.66364 1.21786,-0.6497 2.14806,-1.31663 3.12812,-2.1897 -0.67914,-0.18524 -0.67914,-0.18524 -1.37201,-0.37421 -0.15344,-2.05068 0.16249,-3.43022 1.37201,-5.23893 1.02901,-0.93553 1.02901,-0.93553 2.28669,-1.49684 1.74361,0.0935 1.74361,0.0935 3.20137,0.37421 -0.0189,0.44765 -0.0377,0.8953 -0.0572,1.35651 0.17162,1.15445 0.41286,1.55702 1.45061,2.37535 1.19941,0.65277 2.26957,1.13569 3.63727,1.50707 2.43483,-0.42458 3.97985,-1.39396 5.48806,-2.99368 0.27778,-1.2945 0.21642,-2.54989 0.14292,-3.85903 -0.0103,-0.34852 -0.0206,-0.69704 -0.0313,-1.05612 -0.0268,-0.85696 -0.0644,-1.71268 -0.11164,-2.56903 -0.73707,0.0481 -0.73707,0.0481 -1.48903,0.0971 -35.02666,2.26707 -35.02666,2.26707 -51.13725,-0.6144 -2.11497,-0.36491 -4.24136,-0.67491 -6.37036,-0.97956 z m 60.826,1.49684 c 0,1.23489 0,2.46978 0,3.74209 1.0502,-1.28896 1.16171,-2.2221 1.37201,-3.74209 -0.45277,0 -0.90553,0 -1.37201,0 z m -16.92152,7.48418 c -0.62123,1.35641 -0.62123,1.35641 -0.91468,2.61947 1.30058,-0.54785 2.52442,-1.11168 3.65871,-1.87105 0.51654,-1.18422 0.51654,-1.18422 0.45734,-2.24525 -1.51421,0 -2.14521,0.65425 -3.20137,1.49683 z m -10.97612,1.49684 c -0.43937,1.07851 -0.50573,1.75822 -0.48592,2.87673 0.004,0.30246 0.008,0.60491 0.0125,0.91653 0.005,0.23009 0.0106,0.46018 0.0161,0.69725 1.79147,-0.31879 2.81496,-0.77768 4.11605,-1.87104 0.43951,-1.46418 0.58439,-2.30758 0,-3.7421 -1.94739,0 -2.29963,0.0873 -3.65871,1.12263 z m -13.6344,-0.1871 c -0.79531,1.37 -0.66412,2.41888 -0.54309,3.92919 0.15093,0.12349 0.30185,0.24698 0.45734,0.37421 2.87934,-0.18073 2.87934,-0.18073 5.48806,-1.12262 -0.12106,-1.83434 -0.12106,-1.83434 -1.25768,-3.3445 -1.60601,-0.62054 -2.72285,-0.79906 -4.14463,0.16372 z m 28.26922,0.93552 c -0.71652,0.66183 -0.71652,0.66183 -1.40059,1.52022 -2.60502,2.85695 -6.25291,4.47542 -10.01857,6.16715 -1.07569,0.63134 -1.47037,1.00324 -1.84364,2.04207 0.18407,0.98358 0.18407,0.98358 0.62884,1.9646 0.13559,0.3338 0.27118,0.66761 0.41089,1.01153 0.10965,0.25277 0.2193,0.50553 0.33228,0.76596 2.83003,0.0403 5.51887,-0.0899 8.31963,-0.40929 0.37992,-0.0415 0.75984,-0.0831 1.15127,-0.12585 1.19763,-0.13139 2.39471,-0.26583 3.59182,-0.40038 0.81847,-0.0904 1.63698,-0.18049 2.45552,-0.27043 1.99261,-0.21938 3.98475,-0.44149 5.97666,-0.6651 1.5384,-3.65138 1.44675,-7.3942 1.37201,-11.22627 -0.25468,0.11673 -0.50936,0.23347 -0.77175,0.35374 -1.85101,0.77263 -3.23527,1.33349 -5.31656,0.9326 -1.43973,-0.45923 -2.34125,-0.87747 -3.51579,-1.66055 -0.45276,0 -0.90553,0 -1.37202,0 z m -15.09216,10.47786 c -0.90553,1.6671 -0.90553,1.6671 -1.82935,3.36788 1.43632,0.50336 1.43632,0.50336 3.20137,0 -0.30184,-1.1114 -0.60369,-2.2228 -0.91468,-3.36788 -0.15092,0 -0.30184,0 -0.45734,0 z m 29.58407,1.23956 c -0.47929,0.0989 -0.95859,0.19778 -1.4524,0.29966 -1.21863,0.22966 -1.21863,0.22966 -1.60605,1.08024 -0.10034,0.59545 -0.17863,1.19346 -0.24475,1.79211 -0.0398,0.35214 -0.0796,0.70427 -0.12058,1.06708 -0.0398,0.36854 -0.0796,0.73708 -0.12059,1.11678 -0.0416,0.37144 -0.0831,0.74287 -0.12595,1.12555 -0.10257,0.91885 -0.20344,1.83779 -0.30281,2.75687 0.87708,-0.8854 1.74079,-1.76901 2.54752,-2.6984 1.76333,-2.00832 3.58072,-3.28108 6.16871,-4.55921 0.293,-0.19826 0.586,-0.39651 0.88788,-0.60078 0,-0.49395 0,-0.98791 0,-1.49684 -2.08661,-0.38139 -3.56776,-0.32665 -5.63098,0.11694 z m -31.87076,3.99937 c -0.59293,2.73691 -0.44409,5.10917 0.343,7.78822 0.11607,0.39539 0.11607,0.39539 0.23448,0.79876 0.53872,1.71021 1.27303,3.27737 2.16655,4.88455 2.31152,-1.89137 3.04582,-4.88099 3.25497,-7.47396 -0.103,-2.17696 -0.76173,-4.26954 -1.42562,-6.37178 -1.61073,-0.0299 -3.02749,-0.015 -4.57338,0.37421 z m -37.0444,7.85839 c -0.46178,1.45694 -0.91744,2.91511 -1.37202,4.37357 -0.13087,0.41267 -0.26175,0.82535 -0.39659,1.25053 -0.18571,0.59875 -0.18571,0.59875 -0.37516,1.2096 -0.11496,0.36646 -0.22992,0.73292 -0.34837,1.11048 -0.24306,1.00051 -0.29949,1.89121 -0.25189,2.90788 1.27103,-1.30163 2.26255,-2.71526 3.25854,-4.16307 0.16448,-0.23685 0.32896,-0.4737 0.49842,-0.71772 0.59623,-0.8606 1.19031,-1.71841 1.7311,-2.60339 -0.20752,-0.13892 -0.41503,-0.27785 -0.62884,-0.42098 -0.95826,-0.90471 -1.25545,-1.80718 -1.65785,-2.9469 -0.15092,0 -0.30185,0 -0.45734,0 z m -3.20137,10.85206 c 0.45734,1.12263 0.45734,1.12263 0.45734,1.12263 z m 65.85671,2.61947 c 0.45734,1.12263 0.45734,1.12263 0.45734,1.12263 z m 0.45734,2.24525 c -0.11429,2.48868 0.11912,4.70376 0.91468,7.10998 0.66698,-1.48077 0.31056,-2.88078 0.0286,-4.39696 -0.0457,-0.26097 -0.0914,-0.52194 -0.13845,-0.79081 -0.11271,-0.64111 -0.22967,-1.28171 -0.34747,-1.92221 -0.15093,0 -0.30185,0 -0.45734,0 z"
   fill="#000000"
   id="path1-5"
   style="stroke-width:0.413692" /><text
   xml:space="preserve"
   style="font-style:normal;font-variant:normal;font-weight:normal;font-stretch:normal;font-size:29.3333px;font-family:Excalifont;-inkscape-font-specification:'Excalifont, Normal';font-variant-ligatures:normal;font-variant-caps:normal;font-variant-numeric:normal;font-variant-east-asian:normal;text-align:start;writing-mode:lr-tb;direction:ltr;text-anchor:start;fill:#000000;stroke-width:2.09267"
   x="220.24738"
   y="411.87985"
   id="text7"><tspan
     sodipodi:role="line"
     id="tspan1"
     x="220.24738"
     y="411.87985"
     style="font-style:normal;font-variant:normal;font-weight:normal;font-stretch:normal;font-size:29.3333px;font-family:Excalifont;-inkscape-font-specification:'Excalifont, Normal';font-variant-ligatures:normal;font-variant-caps:normal;font-variant-numeric:normal;font-variant-east-asian:normal;stroke-width:2.09267">Amanu</tspan></text></svg>
