<?xml version="1.0" encoding="UTF-8" standalone="no"?>
<svg
   viewBox="0 0 1741.843 487.79"
   width="1741.843"
   height="487.79"
   version="1.1"
   id="svg9"
   sodipodi:docname="cover-design.svg"
   inkscape:version="1.4 (e7c3feb1, 2024-10-09)"
   xml:space="preserve"
   xmlns:inkscape="http://www.inkscape.org/namespaces/inkscape"
   xmlns:sodipodi="http://sodipodi.sourceforge.net/DTD/sodipodi-0.dtd"
   xmlns="http://www.w3.org/2000/svg"
   xmlns:svg="http://www.w3.org/2000/svg"><defs
   id="defs1" /><sodipodi:namedview
   id="namedview1"
   pagecolor="#ffffff"
   bordercolor="#eeeeee"
   borderopacity="0"
   inkscape:showpageshadow="0"
   inkscape:pageopacity="0"
   inkscape:pagecheckerboard="0"
   inkscape:deskcolor="#505050"
   inkscape:zoom="0.43096984"
   inkscape:cx="529.03934"
   inkscape:cy="33.645046"
   inkscape:window-width="1472"
   inkscape:window-height="806"
   inkscape:window-x="0"
   inkscape:window-y="38"
   inkscape:window-maximized="1"
   inkscape:current-layer="svg9" />

    <path
   fill="#fff"
   d="M0 0h1741.843v487.79H0z"
   id="path1"
   style="fill:#ffffff;fill-opacity:0" /><text
   y="56.165"
   font-family="Excalifont, Xiaolai, Segoe UI Emoji"
   font-size="63.751"
   fill="#1e1e1e"
   style="white-space:pre"
   dominant-baseline="alphabetic"
   transform="translate(1213.737 33.134)"
   id="text1">Logbook</text><text
   y="14.096"
   font-family="Excalifont, Xiaolai, Segoe UI Emoji"
   font-size="16"
   fill="#1e1e1e"
   style="white-space:pre"
   dominant-baseline="alphabetic"
   transform="translate(1203.663 131.01)"
   id="text2">Where the good times are recorded</text><path
   d="M1478.113 120.654c-45.6.11-225.88-2.94-271.64-3.01m268.29 1.93c-46.09.49-225.79-.18-270.03.48"
   stroke="#1e1e1e"
   stroke-width=".5"
   fill="none"
   stroke-linecap="round"
   id="path2" /><path
   d="m 234.80089,449.58156 c 46.6481,-1.69958 229.84192,-16.41072 276.64547,-18.44464 m -279.56745,5.21019 c 47.68426,0.41793 237.56134,6.12963 284.66537,4.79227 M 35.525781,297.36577 c 194.343019,57.22766 338.487179,45.34549 467.724499,0 m -467.724499,0 c 168.356679,81.54835 320.657689,60.27885 467.724499,0 m 0,0 c 17.62516,0.25078 25.67616,-20.92437 25.27207,-67.95545 m -25.27207,67.95545 c 19.46953,6.43615 22.15321,-26.97042 25.27207,-67.95545 m 0,0 c 2.78727,-25.6888 0.15541,-63.69258 0,-135.91094 m 0,135.91094 c -0.67352,-36.86144 2.53859,-86.17722 0,-135.91094 m 0,0 c -0.41447,-55.94693 -12.32,-74.920953 -25.27207,-67.955466 m 25.27207,67.955466 c 4.08247,-49.148593 -7.00449,-67.843999 -25.27207,-67.955466 m 0,0 c -181.8157,-13.262319 -362.55383,-12.732924 -467.724499,0 m 467.724499,0 c -113.58431,1.253808 -226.77487,2.841943 -467.724499,0 m 0,0 C 16.563976,23.67716 11.103392,42.428299 10.253737,93.49938 M 35.525781,25.543914 C 21.330332,23.844336 9.694209,41.759619 10.253737,93.49938 m 0,0 c -4.1135713,33.35084 -1.5646076,66.75742 0,135.91094 m 0,-135.91094 c 1.77184,36.44353 -1.1501419,64.13838 0,135.91094 m 0,0 c -1.668224,38.44959 8.33076,67.50966 25.272044,67.95545 M 10.253737,229.41032 c 1.274483,36.97289 4.921781,64.27768 25.272044,67.95545"
   stroke="#1e1e1e"
   stroke-width="0.849554"
   fill="none"
   stroke-linecap="round"
   id="path6"
   sodipodi:nodetypes="cccccccccccccccccccccccccccccccccccc" /><text
   xml:space="preserve"
   style="font-size:34.7383px;font-family:Excalifont;-inkscape-font-specification:'Excalifont, Normal';text-align:start;writing-mode:lr-tb;direction:ltr;text-anchor:start;fill:#000000;stroke-width:0.7"
   x="39.445915"
   y="99.774963"
   id="text4"><tspan
     sodipodi:role="line"
     id="tspan3"
     x="39.445915"
     y="99.774963" /></text></svg>
