<?xml version="1.0" encoding="UTF-8" standalone="no"?>
<svg
   viewBox="0 0 1741.843 487.79"
   width="1741.843"
   height="487.79"
   version="1.1"
   id="svg9"
   sodipodi:docname="cover-design.svg"
   inkscape:version="1.4 (e7c3feb1, 2024-10-09)"
   xml:space="preserve"
   xmlns:inkscape="http://www.inkscape.org/namespaces/inkscape"
   xmlns:sodipodi="http://sodipodi.sourceforge.net/DTD/sodipodi-0.dtd"
   xmlns:xlink="http://www.w3.org/1999/xlink"
   xmlns="http://www.w3.org/2000/svg"
   xmlns:svg="http://www.w3.org/2000/svg"><sodipodi:namedview
     id="namedview9"
     pagecolor="#505050"
     bordercolor="#eeeeee"
     borderopacity="1"
     inkscape:showpageshadow="0"
     inkscape:pageopacity="0"
     inkscape:pagecheckerboard="0"
     inkscape:deskcolor="#505050"
     inkscape:zoom="0.38487969"
     inkscape:cx="1226.3573"
     inkscape:cy="-3.8973218"
     inkscape:window-width="1472"
     inkscape:window-height="806"
     inkscape:window-x="0"
     inkscape:window-y="38"
     inkscape:window-maximized="1"
     inkscape:current-layer="svg9" /><path
     fill="#fff"
     d="M0 0h1741.843v487.79H0z"
     id="path1" /><text
     y="56.165"
     font-family="Excalifont, Xiaolai, Segoe UI Emoji"
     font-size="63.751"
     fill="#1e1e1e"
     style="white-space:pre"
     dominant-baseline="alphabetic"
     transform="translate(1213.737 33.134)"
     id="text1">Logbook</text><text
     y="14.096"
     font-family="Excalifont, Xiaolai, Segoe UI Emoji"
     font-size="16"
     fill="#1e1e1e"
     style="white-space:pre"
     dominant-baseline="alphabetic"
     transform="translate(1203.663 131.01)"
     id="text2">Where the good times are recorded</text><path
     d="M1478.113 120.654c-45.6.11-225.88-2.94-271.64-3.01m268.29 1.93c-46.09.49-225.79-.18-270.03.48"
     stroke="#1e1e1e"
     stroke-width=".5"
     fill="none"
     stroke-linecap="round"
     id="path2" /><text
     y="24.668"
     font-family="Excalifont, Xiaolai, Segoe UI Emoji"
     font-size="28"
     fill="#1e1e1e"
     style="white-space:pre"
     dominant-baseline="alphabetic"
     transform="translate(29.936 67.858)"
     id="text3">Mascha</text><text
     y="24.668"
     font-family="Excalifont, Xiaolai, Segoe UI Emoji"
     font-size="28"
     fill="#1e1e1e"
     style="white-space:pre"
     dominant-baseline="alphabetic"
     transform="translate(26.2 132.628)"
     id="text4">May you always follow your dreams,</text><text
     y="59.668"
     font-family="Excalifont, Xiaolai, Segoe UI Emoji"
     font-size="28"
     fill="#1e1e1e"
     style="white-space:pre"
     dominant-baseline="alphabetic"
     transform="translate(26.2 132.628)"
     id="text5">and may your dreams take you </text><text
     y="94.668"
     font-family="Excalifont, Xiaolai, Segoe UI Emoji"
     font-size="28"
     fill="#1e1e1e"
     style="white-space:pre"
     dominant-baseline="alphabetic"
     transform="translate(26.2 132.628)"
     id="text6">where you are the happiest</text><path
     d="M226.71 305.665c45.02.61 221.82 5.89 266.99 6.62m-269.81-1.87c46.02-.15 229.27-2.2 274.73-1.72M34.39 360.297c155.78 5.13 308.2 4.59 451.4 0m-451.4 0c149.56-1.43 299.81-.83 451.4 0m0 0c17.01-.09 24.78 7.51 24.39 24.39m-24.39-24.39c18.79-2.31 21.38 9.68 24.39 24.39m0 0c2.69 9.22.15 22.86 0 48.78m0-48.78c-.65 13.23 2.45 30.93 0 48.78m0 0c-.4 20.08-11.89 26.89-24.39 24.39m24.39-24.39c3.94 17.64-6.76 24.35-24.39 24.39m0 0c-175.47 4.76-349.9 4.57-451.4 0m451.4 0c-109.62-.45-218.86-1.02-451.4 0m0 0c-18.3.67-23.57-6.06-24.39-24.39m24.39 24.39c-13.7.61-24.93-5.82-24.39-24.39m0 0c-3.97-11.97-1.51-23.96 0-48.78m0 48.78c1.71-13.08-1.11-23.02 0-48.78m0 0c-1.61-13.8 8.04-24.23 24.39-24.39M10 384.687c1.23-13.27 4.75-23.07 24.39-24.39"
     stroke="#1e1e1e"
     stroke-width=".5"
     fill="none"
     stroke-linecap="round"
     id="path6" /><text
     y="17.817"
     font-family="Excalifont, Xiaolai, Segoe UI Emoji"
     font-size="20.223"
     fill="#1e1e1e"
     style="white-space:pre"
     dominant-baseline="alphabetic"
     transform="translate(26.234 415.464)"
     id="text7">Please call </text><text
     y="24.668"
     font-family="Excalifont, Xiaolai, Segoe UI Emoji"
     font-size="28"
     fill="#1e1e1e"
     style="white-space:pre"
     dominant-baseline="alphabetic"
     transform="translate(109.455 377.639)"
     id="text8">+49 1578 6610 622</text><text
     y="17.817"
     font-family="Excalifont, Xiaolai, Segoe UI Emoji"
     font-size="20.223"
     fill="#1e1e1e"
     style="white-space:pre"
     dominant-baseline="alphabetic"
     transform="translate(351.455 416.908)"
     id="text9">if you find this</text><image
     width="1201.1582"
     height="519.73187"
     preserveAspectRatio="none"
     xlink:href="./assets/minimal-jump-v2.png"
     id="image1-3"
     x="546.26135"
     y="-24.723139" /></svg>
